<svg id="SvgjsSvg1001" width="288" height="288" xmlns="http://www.w3.org/2000/svg" version="1.1" xmlns:xlink="http://www.w3.org/1999/xlink" xmlns:svgjs="http://svgjs.com/svgjs"><defs id="SvgjsDefs1002"></defs><g id="SvgjsG1008" transform="matrix(0.9167,0,0,0.9167,11.995200000000011,11.995200000000011)"><!--?xml version="1.0" encoding="UTF-8"?--><svg xmlns="http://www.w3.org/2000/svg" xmlns:xlink="http://www.w3.org/1999/xlink" version="1.1" id="Layer_1" x="0px" y="0px" viewBox="0 0 24 24" xml:space="preserve" width="288" height="288"><path fill="#f38704" d="M19 24H5a1 1 0 0 1-1-1V1a1 1 0 0 1 1-1h14a1 1 0 0 1 1 1v22a1 1 0 0 1-1 1z" class="colorF2F2F2 svgShape"></path><path opacity="0.2" fill="#ffffff" d="M19 0H5a1 1 0 0 0-1 1v.25a1 1 0 0 1 1-1h14a1 1 0 0 1 1 1V1a1 1 0 0 0-1-1z" class="colorFFF svgShape"></path><path fill="#a1abb2" d="M7 16h5v8H7z" class="colorA1ABB2 svgShape"></path><path fill="#a1abb2" d="M12 16h5v8h-5z" class="colorA1ABB2 svgShape"></path><path opacity="0.1" d="M12 16h5v8h-5z" fill="#000000" class="color000 svgShape"></path><path fill="#a1abb2" d="M13 9h5v5h-5z" class="colorA1ABB2 svgShape"></path><path opacity="0.1" d="M19 23.75H5a1 1 0 0 1-1-1V23a1 1 0 0 0 1 1h14a1 1 0 0 0 1-1v-.25a1 1 0 0 1-1 1z" fill="#000000" class="color000 svgShape"></path><path fill="#96d1f2" d="M14 10h3v3h-3z" class="color96D1F2 svgShape"></path><path fill="#a1abb2" d="M6 9h5v5H6z" class="colorA1ABB2 svgShape"></path><path fill="#96d1f2" d="M7 10h3v3H7z" class="color96D1F2 svgShape"></path><path fill="#a1abb2" d="M13 2h5v5h-5z" class="colorA1ABB2 svgShape"></path><path fill="#96d1f2" d="M14 3h3v3h-3z" class="color96D1F2 svgShape"></path><path fill="#a1abb2" d="M6 2h5v5H6z" class="colorA1ABB2 svgShape"></path><path fill="#96d1f2" d="M7 3h3v3H7z" class="color96D1F2 svgShape"></path><linearGradient id="SVGID_1_" gradientUnits="userSpaceOnUse" x1="1.1304748" y1="6.931457" x2="22.8695259" y2="17.0685425"><stop offset="0" stop-color="#FFF" stop-opacity="0.2"></stop><stop offset="1" stop-color="#FFF" stop-opacity="0"></stop></linearGradient><path fill="url(#SVGID_1_)" d="M19 24H5a1 1 0 0 1-1-1V1a1 1 0 0 1 1-1h14a1 1 0 0 1 1 1v22a1 1 0 0 1-1 1z"></path><metadata><rdf:rdf xmlns:rdf="http://www.w3.org/1999/02/22-rdf-syntax-ns#" xmlns:rdfs="http://www.w3.org/2000/01/rdf-schema#" xmlns:dc="http://purl.org/dc/elements/1.1/"><rdf:description about="https://iconscout.com/legal#licenses" dc:title="place,architecture,building,landmark,apartment,block,flat" dc:description="place,architecture,building,landmark,apartment,block,flat" dc:publisher="Iconscout" dc:date="2017-11-13" dc:format="image/svg+xml" dc:language="en"><dc:creator><rdf:bag><rdf:li>Those Icons</rdf:li></rdf:bag></dc:creator></rdf:description></rdf:rdf></metadata></svg></g></svg>