<svg id="SvgjsSvg1001" width="288" height="288" xmlns="http://www.w3.org/2000/svg" version="1.1" xmlns:xlink="http://www.w3.org/1999/xlink" xmlns:svgjs="http://svgjs.com/svgjs"><defs id="SvgjsDefs1002"></defs><g id="SvgjsG1008" transform="matrix(0.9167,0,0,0.9167,11.995194598007203,11.995199841117852)"><!--?xml version="1.0" encoding="UTF-8"?--><svg xmlns="http://www.w3.org/2000/svg" xmlns:xlink="http://www.w3.org/1999/xlink" version="1.1" id="Layer_1" x="0px" y="0px" viewBox="0 0 24 24" xml:space="preserve" width="288" height="288"><path id="base_color_36_" fill="#c95086" d="M22.146 11.44l-9.414-9.415A3.523 3.523 0 0 0 10.258 1H3c-1.103 0-2 .897-2 2v7.257a3.48 3.48 0 0 0 1.025 2.475l9.414 9.414c.551.55 1.284.854 2.061.854s1.51-.303 2.06-.854l6.586-6.585c.551-.55.854-1.282.854-2.061s-.303-1.51-.854-2.06zM5 7a2 2 0 1 1 0-4 2 2 0 0 1 0 4z" class="colorF47920 svgShape"></path><path opacity="0.8" fill="#ffffff" d="M14.157 16.278l-1.768-1.768-1.768 1.768L8.5 14.157l1.768-1.768L8.5 10.621 10.621 8.5l1.768 1.768L14.157 8.5l2.121 2.121-1.768 1.768 1.768 1.768z" class="colorFFF svgShape"></path><metadata><rdf:rdf xmlns:rdf="http://www.w3.org/1999/02/22-rdf-syntax-ns#" xmlns:rdfs="http://www.w3.org/2000/01/rdf-schema#" xmlns:dc="http://purl.org/dc/elements/1.1/"><rdf:description about="https://iconscout.com/legal#licenses" dc:title="tag,price,medical,healt" dc:description="tag,price,medical,healt" dc:publisher="Iconscout" dc:date="2017-10-16" dc:format="image/svg+xml" dc:language="en"><dc:creator><rdf:bag><rdf:li>Those Icons</rdf:li></rdf:bag></dc:creator></rdf:description></rdf:rdf></metadata></svg></g></svg>