<svg data-v-fde0c5aa="" xmlns="http://www.w3.org/2000/svg" viewBox="0 0 300 300" class="icon"><!----><defs data-v-fde0c5aa=""><!----></defs><rect data-v-fde0c5aa="" fill="#f38603" x="0" y="0" width="300px" height="300px" class="logo-background-square"></rect><!----><defs data-v-fde0c5aa=""><!----></defs><g data-v-fde0c5aa="" id="f6b4621f-f876-4a37-8bfb-a42d5ef8c26b" fill="#DFE0DF" stroke="none" transform="matrix(2.601856535454868,0,0,2.601856535454868,32.498849116928454,23.448305093462906)"><ellipse cx="80.072" cy="65.967" rx="7.366" ry="2.582"></ellipse><ellipse cx="10.249" cy="66.312" rx="7.366" ry="2.582"></ellipse><ellipse cx="63.345" cy="66.14" rx="7.367" ry="2.582"></ellipse><ellipse cx="27.436" cy="66.14" rx="7.366" ry="2.582"></ellipse><ellipse cx="45.238" cy="66.14" rx="7.366" ry="2.582"></ellipse><ellipse cx="77.639" cy="58.824" rx="6.402" ry="2.321"></ellipse><ellipse cx="16.957" cy="59.134" rx="6.402" ry="2.322"></ellipse><ellipse cx="63.102" cy="58.979" rx="6.402" ry="2.322"></ellipse><ellipse cx="31.894" cy="58.979" rx="6.402" ry="2.322"></ellipse><ellipse cx="47.365" cy="58.979" rx="6.402" ry="2.322"></ellipse><ellipse cx="74.622" cy="53.123" rx="5.43" ry="1.529"></ellipse><ellipse cx="23.148" cy="53.326" rx="5.43" ry="1.53"></ellipse><ellipse cx="62.291" cy="53.224" rx="5.431" ry="1.53"></ellipse><ellipse cx="35.819" cy="53.224" rx="5.43" ry="1.53"></ellipse><ellipse cx="48.942" cy="53.224" rx="5.43" ry="1.53"></ellipse><ellipse cx="72.712" cy="49.097" rx="4.731" ry="1.156"></ellipse><ellipse cx="27.87" cy="49.251" rx="4.731" ry="1.156"></ellipse><ellipse cx="61.97" cy="49.174" rx="4.73" ry="1.155"></ellipse><ellipse cx="38.908" cy="49.174" rx="4.731" ry="1.155"></ellipse><ellipse cx="50.34" cy="49.174" rx="4.73" ry="1.155"></ellipse><ellipse cx="70.183" cy="45.567" rx="3.904" ry="1.155"></ellipse><ellipse cx="33.181" cy="45.722" rx="3.904" ry="1.155"></ellipse><ellipse cx="61.319" cy="45.645" rx="3.903" ry="1.155"></ellipse><ellipse cx="42.289" cy="45.645" rx="3.903" ry="1.155"></ellipse><ellipse cx="51.724" cy="45.645" rx="3.903" ry="1.155"></ellipse><ellipse cx="67.674" cy="42.249" rx="3.345" ry=".847"></ellipse><ellipse cx="35.968" cy="42.361" rx="3.345" ry=".848"></ellipse><ellipse cx="60.078" cy="42.305" rx="3.345" ry=".846"></ellipse><ellipse cx="43.773" cy="42.305" rx="3.345" ry=".846"></ellipse><ellipse cx="51.856" cy="42.305" rx="3.345" ry=".846"></ellipse><ellipse cx="64.713" cy="39.569" rx="2.91" ry=".75"></ellipse><ellipse cx="37.13" cy="39.669" rx="2.909" ry=".75"></ellipse><ellipse cx="58.104" cy="39.62" rx="2.909" ry=".749"></ellipse><ellipse cx="43.919" cy="39.62" rx="2.91" ry=".749"></ellipse><ellipse cx="50.952" cy="39.62" rx="2.91" ry=".749"></ellipse><ellipse cx="60.82" cy="37.488" rx="2.505" ry=".56"></ellipse><ellipse cx="37.069" cy="37.563" rx="2.505" ry=".559"></ellipse><ellipse cx="55.13" cy="37.526" rx="2.505" ry=".559"></ellipse><ellipse cx="42.916" cy="37.526" rx="2.506" ry=".559"></ellipse><ellipse cx="48.971" cy="37.526" rx="2.506" ry=".559"></ellipse><ellipse cx="55.342" cy="35.668" rx="2.164" ry=".56"></ellipse><ellipse cx="34.837" cy="35.744" rx="2.163" ry=".56"></ellipse><ellipse cx="50.43" cy="35.706" rx="2.163" ry=".559"></ellipse><ellipse cx="39.884" cy="35.706" rx="2.163" ry=".559"></ellipse><ellipse cx="45.112" cy="35.706" rx="2.163" ry=".559"></ellipse><ellipse cx="51.567" cy="34.081" rx="1.897" ry=".378"></ellipse><ellipse cx="33.578" cy="34.132" rx="1.898" ry=".377"></ellipse><ellipse cx="47.258" cy="34.106" rx="1.897" ry=".377"></ellipse><ellipse cx="38.006" cy="34.106" rx="1.897" ry=".377"></ellipse><ellipse cx="42.592" cy="34.106" rx="1.898" ry=".377"></ellipse><ellipse cx="47.812" cy="32.997" rx="1.664" ry=".253"></ellipse><ellipse cx="32.045" cy="33.031" rx="1.663" ry=".253"></ellipse><ellipse cx="44.036" cy="33.013" rx="1.664" ry=".254"></ellipse><ellipse cx="35.927" cy="33.013" rx="1.664" ry=".254"></ellipse><ellipse cx="39.947" cy="33.013" rx="1.663" ry=".254"></ellipse><ellipse cx="44.17" cy="32.1" rx="1.424" ry=".254"></ellipse><ellipse cx="30.667" cy="32.134" rx="1.424" ry=".253"></ellipse><ellipse cx="40.935" cy="32.117" rx="1.424" ry=".253"></ellipse><ellipse cx="33.99" cy="32.117" rx="1.425" ry=".253"></ellipse><ellipse cx="37.433" cy="32.117" rx="1.424" ry=".253"></ellipse><ellipse cx="40.518" cy="31.239" rx="1.135" ry=".187"></ellipse><ellipse cx="29.759" cy="31.264" rx="1.135" ry=".187"></ellipse><ellipse cx="37.941" cy="31.251" rx="1.135" ry=".188"></ellipse><ellipse cx="32.408" cy="31.251" rx="1.135" ry=".188"></ellipse><ellipse cx="35.151" cy="31.251" rx="1.135" ry=".188"></ellipse><ellipse cx="37.533" cy="30.532" rx=".983" ry=".187"></ellipse><ellipse cx="28.214" cy="30.557" rx=".982" ry=".187"></ellipse><ellipse cx="35.3" cy="30.544" rx=".983" ry=".187"></ellipse><ellipse cx="30.508" cy="30.544" rx=".983" ry=".187"></ellipse><ellipse cx="32.884" cy="30.544" rx=".983" ry=".187"></ellipse><ellipse cx="33.52" cy="29.916" rx=".878" ry=".101"></ellipse><ellipse cx="31.525" cy="29.922" rx=".879" ry=".102"></ellipse><ellipse cx="27.243" cy="29.922" rx=".878" ry=".102"></ellipse><ellipse cx="29.366" cy="29.922" rx=".878" ry=".102"></ellipse><ellipse cx="31.585" cy="29.399" rx=".762" ry=".102"></ellipse><ellipse cx="29.854" cy="29.406" rx=".762" ry=".102"></ellipse><ellipse cx="26.14" cy="29.406" rx=".762" ry=".102"></ellipse><ellipse cx="27.981" cy="29.406" rx=".762" ry=".102"></ellipse><ellipse cx="29.958" cy="28.91" rx=".673" ry=".101"></ellipse><ellipse cx="28.43" cy="28.917" rx=".673" ry=".102"></ellipse><ellipse cx="25.151" cy="28.917" rx=".672" ry=".102"></ellipse><ellipse cx="26.777" cy="28.917" rx=".673" ry=".102"></ellipse><ellipse cx="27.534" cy="28.458" rx=".614" ry=".074"></ellipse><ellipse cx="26.139" cy="28.463" rx=".614" ry=".074"></ellipse><ellipse cx="24.629" cy="28.463" rx=".614" ry=".074"></ellipse></g><!----></svg>