<svg id="SvgjsSvg1001" width="288" height="288" xmlns="http://www.w3.org/2000/svg" version="1.1" xmlns:xlink="http://www.w3.org/1999/xlink" xmlns:svgjs="http://svgjs.com/svgjs"><defs id="SvgjsDefs1002"></defs><g id="SvgjsG1008" transform="matrix(0.9167,0,0,0.9167,11.995200000000011,11.995200000000011)"><!--?xml version="1.0" encoding="UTF-8"?--><svg xmlns="http://www.w3.org/2000/svg" xmlns:xlink="http://www.w3.org/1999/xlink" version="1.1" id="Layer_1" x="0px" y="0px" viewBox="0 0 24 24" xml:space="preserve" width="288" height="288"><path fill="#333333" d="M1 18v2a1 1 0 0 0 1 1h4a1 1 0 0 0 1-1v-2H1z" class="color333 svgShape"></path><path fill="#333333" d="M17 18v2a1 1 0 0 0 1 1h4a1 1 0 0 0 1-1v-2h-6z" class="color333 svgShape"></path><linearGradient id="SVGID_1_" gradientUnits="userSpaceOnUse" x1="18.1186485" y1="17.3257561" x2="21.449297" y2="20.6564045"><stop offset="0" stop-color="#000" stop-opacity="0.1"></stop><stop offset="1" stop-color="#000" stop-opacity="0"></stop></linearGradient><path fill="url(#SVGID_1_)" d="M17 18v2a1 1 0 0 0 1 1h4a1 1 0 0 0 1-1v-2h-6z"></path><path opacity="0.2" d="M6 20.75H2a1 1 0 0 1-1-1V20a1 1 0 0 0 1 1h4a1 1 0 0 0 1-1v-.25a1 1 0 0 1-1 1z" fill="#000000" class="color000 svgShape"></path><path opacity="0.2" d="M22 20.75h-4a1 1 0 0 1-1-1V20a1 1 0 0 0 1 1h4a1 1 0 0 0 1-1v-.25a1 1 0 0 1-1 1z" fill="#000000" class="color000 svgShape"></path><path fill="#865794" d="M21.5 7c-.846 0-1.316 1.3-1.48 1.86a.501.501 0 0 0 .256.587l1 .5a.501.501 0 0 0 .693-.273c.11-.073.36-.18.516-.249.523-.225 1.015-.438 1.015-.925 0-.731-1.388-1.5-2-1.5z" class="colorEE3124 svgShape"></path><path fill="#865794" d="M2.5 7c-.612 0-2 .769-2 1.5 0 .487.492.7 1.015.925.157.068.407.176.516.249a.497.497 0 0 0 .693.273l1-.5a.501.501 0 0 0 .256-.587C3.816 8.3 3.346 7 2.5 7z" class="colorEE3124 svgShape"></path><path fill="#865794" d="M23.437 10.757c-.464-.834-2.045-1.812-2.55-2.11-.682-1.482-2.15-4.617-2.533-5C17.819 3.111 14.604 3 12 3s-5.82.112-6.354.646c-.383.384-1.851 3.519-2.534 5.001-.504.298-2.085 1.276-2.55 2.11C.067 11.65 0 13.403 0 15c0 .545.09 1.42.267 2.6a2.49 2.49 0 0 0 2.248 2.119C3.929 19.847 6.723 20 12 20s8.071-.153 9.485-.281a2.49 2.49 0 0 0 2.248-2.118C23.91 16.421 24 15.545 24 15c0-1.597-.066-3.35-.563-4.243z" class="colorEE3124 svgShape"></path><path fill="#97c6d5" d="M12 8c-1.03 0-5.535.14-7.654.364.892-1.91 1.809-3.773 2.016-4.02C6.647 4.202 8.92 4 12 4s5.353.202 5.69.389c.162.208 1.073 2.066 1.964 3.975C17.534 8.14 13.03 8 12 8z" class="color97C6D5 svgShape"></path><linearGradient id="SVGID_2_" gradientUnits="userSpaceOnUse" x1="6.2988729" y1="4.1754451" x2="18.8730564" y2="10.0388832"><stop offset="0" stop-color="#FFF" stop-opacity="0.4"></stop><stop offset="1" stop-color="#FFF" stop-opacity="0"></stop></linearGradient><path fill="url(#SVGID_2_)" d="M12 8c-1.03 0-5.535.14-7.654.364.892-1.91 1.809-3.773 2.016-4.02C6.647 4.202 8.92 4 12 4s5.353.202 5.69.389c.162.208 1.073 2.066 1.964 3.975C17.534 8.14 13.03 8 12 8z"></path><path opacity="0.16" fill="#303c42" d="M23.733 17.351a2.49 2.49 0 0 1-2.248 2.118c-1.414.128-4.208.281-9.485.281s-8.071-.153-9.485-.281A2.49 2.49 0 0 1 .267 17.35C.093 16.194.005 15.335 0 14.788L0 15c0 .545.09 1.42.267 2.6a2.49 2.49 0 0 0 2.248 2.119C3.929 19.847 6.723 20 12 20s8.071-.153 9.485-.281a2.49 2.49 0 0 0 2.248-2.118C23.91 16.421 24 15.545 24 15l-.001-.212c-.004.547-.092 1.406-.266 2.563z" class="color303C42 svgShape"></path><path fill="#ffffff" fill-opacity="0.24" d="M19.654 8.364C17.534 8.14 13.03 8 12 8s-5.535.14-7.654.364l-.122.263C6.286 8.397 10.95 8.25 12 8.25s5.714.146 7.776.377c-.04-.088-.08-.175-.122-.263z" class="colorFFF svgShape"></path><path opacity="0.1" d="M3.42 9.485c.222.118.702.988 1.02 1.563.607 1.1 1.181 2.139 1.874 2.416C7.48 13.93 10.377 14 12 14s4.52-.07 5.686-.536c.693-.277 1.267-1.316 1.875-2.416.308-.56.771-1.398 1-1.552v-.25c-.229.154-.692.992-1 1.552-.608 1.1-1.182 2.139-1.875 2.416-1.166.466-4.063.536-5.686.536s-4.52-.07-5.686-.536c-.693-.277-1.267-1.316-1.875-2.416-.317-.575-.797-1.445-1.018-1.563v.25z" fill="#000000" class="color000 svgShape"></path><path opacity="0.2" fill="#ffffff" d="M.563 11.007c.464-.834 2.045-1.812 2.55-2.11.682-1.482 2.15-4.617 2.533-5 .535-.535 3.75-.647 6.354-.647s5.82.112 6.354.646c.383.384 1.851 3.519 2.534 5.001.504.298 2.085 1.276 2.55 2.11.474.854.554 2.493.56 4.03L24 15c0-1.597-.066-3.35-.563-4.243-.464-.834-2.045-1.812-2.55-2.11-.682-1.482-2.15-4.617-2.533-5C17.819 3.111 14.604 3 12 3s-5.82.112-6.354.646c-.383.384-1.851 3.519-2.534 5.001-.504.298-2.085 1.276-2.55 2.11C.067 11.65 0 13.403 0 15l.001.038c.007-1.538.087-3.177.561-4.03z" class="colorFFF svgShape"></path><circle fill="#cccccc" cx="3" cy="12.5" r="2" class="colorCCC svgShape"></circle><circle fill="#f2f2f2" cx="3" cy="12.5" r="1.5" class="colorF2F2F2 svgShape"></circle><circle fill="#cccccc" cx="21" cy="12.5" r="2" class="colorCCC svgShape"></circle><circle fill="#f2f2f2" cx="21" cy="12.5" r="1.5" class="colorF2F2F2 svgShape"></circle><linearGradient id="SVGID_3_" gradientUnits="userSpaceOnUse" x1="1.6405965" y1="11.8660994" x2="4.3594036" y2="13.1339006"><stop offset="0" stop-color="#FFF" stop-opacity="0.4"></stop><stop offset="1" stop-color="#FFF" stop-opacity="0"></stop></linearGradient><circle fill="url(#SVGID_3_)" cx="3" cy="12.5" r="1.5"></circle><linearGradient id="SVGID_4_" gradientUnits="userSpaceOnUse" x1="19.6405964" y1="11.8660994" x2="22.3594036" y2="13.1339006"><stop offset="0" stop-color="#FFF" stop-opacity="0.4"></stop><stop offset="1" stop-color="#FFF" stop-opacity="0"></stop></linearGradient><circle fill="url(#SVGID_4_)" cx="21" cy="12.5" r="1.5"></circle><path fill="#333333" d="M6.94 16.261a.5.5 0 0 0-.385-.258l-4.5-.5a.5.5 0 0 0-.486.75c.016.029.426.717 1.17 1.173.72.442 2.824.555 3.239.574a.5.5 0 0 0 .47-.276l.5-1a.5.5 0 0 0-.009-.463z" class="color333 svgShape"></path><path fill="#333333" d="M17.061 16.261a.5.5 0 0 1 .385-.258l4.5-.5a.5.5 0 0 1 .486.75 3.753 3.753 0 0 1-1.17 1.173c-.72.442-2.825.555-3.24.574h-.021a.5.5 0 0 1-.447-.276l-.5-1a.5.5 0 0 1 .007-.463z" class="color333 svgShape"></path><path fill="#333333" d="M16.447 17.276l-.5-1A.5.5 0 0 0 15.5 16h-7a.5.5 0 0 0-.447.276l-.5 1A.499.499 0 0 0 8 18h8a.5.5 0 0 0 .447-.724z" class="color333 svgShape"></path><path opacity="0.1" d="M23 15.5c-1 0-1 0-5.5.5h-11C2 15.5 2 15.5 1 15.5c-.43 0-.84.02-.952.338.043.481.113 1.061.219 1.763a2.49 2.49 0 0 0 2.248 2.118C3.929 19.847 6.723 20 12 20s8.071-.153 9.485-.281a2.49 2.49 0 0 0 2.248-2.118c.106-.702.176-1.282.219-1.763-.112-.318-.522-.338-.952-.338z" fill="#000000" class="color000 svgShape"></path><linearGradient id="SVGID_5_" gradientUnits="userSpaceOnUse" x1="2.0518084" y1="11.5518084" x2="3.7304389" y2="13.2304392"><stop offset="0" stop-color="#000" stop-opacity="0"></stop><stop offset="1" stop-color="#000" stop-opacity="0.1"></stop></linearGradient><circle fill="url(#SVGID_5_)" cx="3" cy="12.5" r="1.5"></circle><linearGradient id="SVGID_6_" gradientUnits="userSpaceOnUse" x1="20.0518074" y1="11.5518084" x2="21.7304382" y2="13.2304392"><stop offset="0" stop-color="#000" stop-opacity="0"></stop><stop offset="1" stop-color="#000" stop-opacity="0.1"></stop></linearGradient><circle fill="url(#SVGID_6_)" cx="21" cy="12.5" r="1.5"></circle><linearGradient id="SVGID_7_" gradientUnits="userSpaceOnUse" x1="1.1874784" y1="11.6548071" x2="4.8125215" y2="13.3451929"><stop offset="0" stop-color="#FFF" stop-opacity="0.4"></stop><stop offset="1" stop-color="#FFF" stop-opacity="0"></stop></linearGradient><circle fill="url(#SVGID_7_)" cx="3" cy="12.5" r="2"></circle><linearGradient id="SVGID_8_" gradientUnits="userSpaceOnUse" x1="19.187479" y1="11.6548071" x2="22.812521" y2="13.3451929"><stop offset="0" stop-color="#FFF" stop-opacity="0.4"></stop><stop offset="1" stop-color="#FFF" stop-opacity="0"></stop></linearGradient><circle fill="url(#SVGID_8_)" cx="21" cy="12.5" r="2"></circle><g fill="#000000" class="color000 svgShape"><linearGradient id="SVGID_9_" gradientUnits="userSpaceOnUse" x1="2.4663124" y1="17.9522743" x2="5.3898401" y2="20.8758011"><stop offset="0" stop-color="#000" stop-opacity="0.1"></stop><stop offset="1" stop-color="#000" stop-opacity="0"></stop></linearGradient><path fill="url(#SVGID_9_)" d="M2.515 19.719a2.5 2.5 0 0 1-1.512-.69H1L2.971 21H6a1 1 0 0 0 1-1v-.057c-2.2-.056-3.609-.145-4.485-.224z"></path></g><linearGradient id="SVGID_10_" gradientUnits="userSpaceOnUse" x1="0.6957701" y1="7.935164" x2="23.7225533" y2="18.6727295"><stop offset="0" stop-color="#FFF" stop-opacity="0.2"></stop><stop offset="1" stop-color="#FFF" stop-opacity="0"></stop></linearGradient><path fill="url(#SVGID_10_)" d="M24 15c0-1.597-.066-3.35-.563-4.243-.224-.403-.71-.84-1.21-1.217.09-.042.185-.083.258-.115.523-.225 1.015-.438 1.015-.925 0-.731-1.388-1.5-2-1.5-.439 0-.775.351-1.021.766-.744-1.59-1.808-3.802-2.125-4.12C17.819 3.112 14.604 3 12 3s-5.82.112-6.354.646c-.317.318-1.381 2.53-2.125 4.12C3.275 7.351 2.939 7 2.5 7c-.612 0-2 .769-2 1.5 0 .487.492.7 1.015.925.073.032.168.073.258.115-.5.377-.986.814-1.21 1.217C.066 11.65 0 13.403 0 15c0 .545.09 1.42.267 2.6.082.56.349 1.054.733 1.425V20a1 1 0 0 0 1 1h4a1 1 0 0 0 1-1v-.057c1.349.035 2.994.057 5 .057s3.651-.022 5-.057V20a1 1 0 0 0 1 1h4a1 1 0 0 0 1-1v-.975a2.48 2.48 0 0 0 .733-1.424C23.91 16.421 24 15.545 24 15z"></path><metadata><rdf:rdf xmlns:rdf="http://www.w3.org/1999/02/22-rdf-syntax-ns#" xmlns:rdfs="http://www.w3.org/2000/01/rdf-schema#" xmlns:dc="http://purl.org/dc/elements/1.1/"><rdf:description about="https://iconscout.com/legal#licenses" dc:title="transportation,transport,vehicles,porsche,sport,car" dc:description="transportation,transport,vehicles,porsche,sport,car" dc:publisher="Iconscout" dc:date="2017-11-13" dc:format="image/svg+xml" dc:language="en"><dc:creator><rdf:bag><rdf:li>Those Icons</rdf:li></rdf:bag></dc:creator></rdf:description></rdf:rdf></metadata></svg></g></svg>