<svg xmlns="http://www.w3.org/2000/svg" width="32" height="32" viewBox="0 0 32 32"><g transform="translate(310 -1090.862)"><path fill="#d2dce9" fill-rule="evenodd" d="m -310,1119.8155 0,-24.258 3.2,0 0,6.1934 4.0258,0 0,-3.0966 2.06452,0 0,-1.0324 3.09678,0 0,1.0324 2.06452,0 0,6.2079 5.16128,0 0,-10.3371 5.1613,0 0,9.2904 3.09676,0 0,-7.2258 4.12904,0 0,23.2258"/><path fill="#f0f4f7" fill-rule="evenodd" d="m -310,1119.8622 0.05,-10.0467 2.4,0 0,2 3.05,0 0,-1.9533 0,-2.5467 2.41117,0 0,-2 3.27714,0 0,2 1.81169,0 0,-1.4533 0,-3 4,0 0,5 4,0 0,-3 3,0 0,2.5 0,-0.047 4,0 0,2 3,0 1,0 0,10.5467"/><path fill="#f8b84e" fill-rule="evenodd" d="m -298.5,1111.8622 11.00043,0 0,8 -11.00043,0 z"/><path fill="#f8b84e" style="line-height:normal;text-indent:0;text-align:start;text-decoration-line:none;text-decoration-style:solid;text-decoration-color:#000;text-transform:none;block-progression:tb;isolation:auto;mix-blend-mode:normal" d="m -288.5,1108.3691 0,3.0274 1,0 0,-3.0274 -1,0 z" color="#000" font-family="sans-serif" font-weight="400" overflow="visible" white-space="normal"/><path fill="#2b4255" d="M-292.99979 1105.8623l6.49985 6-12.9997 0zM-294.5 1115.8622l3 0 0 3.9999-3 0z"/></g></svg>