<svg id="SvgjsSvg1129" width="288" height="288" xmlns="http://www.w3.org/2000/svg" version="1.1" xmlns:xlink="http://www.w3.org/1999/xlink" xmlns:svgjs="http://svgjs.com/svgjs"><defs id="SvgjsDefs1130"></defs><g id="SvgjsG1131" transform="matrix(0.9167,0,0,0.9167,11.995200000000011,11.995200000000011)"><!--?xml version="1.0" encoding="UTF-8"?--><svg xmlns="http://www.w3.org/2000/svg" xmlns:xlink="http://www.w3.org/1999/xlink" version="1.1" id="Layer_1" x="0px" y="0px" viewBox="0 0 24 24" xml:space="preserve" width="288" height="288"><path fill="#e82320" d="M0 12c0 4 3.208 9 10 9s14-1.5 14-5c0-4.846-3.844-4.5-6-7-1.68-1.948-3.048-6-8.042-6C4.125 3 0 6.083 0 12z" class="colorC6401D svgShape"></path><path fill="#f2f2f2" d="M10 20c-6.557 0-9-4.907-9-8 0-5.01 3.35-8 8.958-8 3.394 0 4.79 2.074 6.14 4.08.383.572.747 1.111 1.145 1.573.849.984 1.906 1.577 2.839 2.1C21.776 12.703 23 13.389 23 16c0 2.28-5.589 4-13 4z" class="colorF2F2F2 svgShape"></path><path fill="#f35b59" d="M10 19.5c-6.192 0-8.5-4.6-8.5-7.5 0-4.696 3.162-7.5 8.458-7.5 3.128 0 4.39 1.875 5.724 3.86.393.583.763 1.134 1.182 1.62.907 1.05 2.004 1.666 2.973 2.209 1.661.932 2.663 1.494 2.663 3.811 0 1.683-4.78 3.5-12.5 3.5z" class="colorD75532 svgShape"></path><circle fill="#f2f2f2" cx="7" cy="12" r="3" class="colorF2F2F2 svgShape"></circle><linearGradient id="SVGID_1_" gradientUnits="userSpaceOnUse" x1="7.4659171" y1="12.4658871" x2="14.4494362" y2="19.4494057"><stop offset="0" stop-color="#000" stop-opacity="0.1"></stop><stop offset="1" stop-color="#000" stop-opacity="0"></stop></linearGradient><path fill="url(#SVGID_1_)" d="M17.943 18.7L9.12 9.879a3 3 0 0 1-4.242 4.243l5.375 5.374c3.086-.016 5.686-.324 7.689-.796z"></path><linearGradient id="SVGID_2_" gradientUnits="userSpaceOnUse" x1="0.8048937" y1="7.9385247" x2="23.1535263" y2="18.3598633"><stop offset="0" stop-color="#FFF" stop-opacity="0.2"></stop><stop offset="1" stop-color="#FFF" stop-opacity="0"></stop></linearGradient><path fill="url(#SVGID_2_)" d="M18 9c-1.68-1.948-3.048-6-8.042-6C4.125 3 0 6.083 0 12c0 4 3.208 9 10 9s14-1.5 14-5c0-4.846-3.844-4.5-6-7z"></path><metadata><rdf:rdf xmlns:rdf="http://www.w3.org/1999/02/22-rdf-syntax-ns#" xmlns:rdfs="http://www.w3.org/2000/01/rdf-schema#" xmlns:dc="http://purl.org/dc/elements/1.1/"><rdf:description about="https://iconscout.com/legal#licenses" dc:title="food,eat,steak,grill,bbq" dc:description="food,eat,steak,grill,bbq" dc:publisher="Iconscout" dc:date="2017-10-16" dc:format="image/svg+xml" dc:language="en"><dc:creator><rdf:bag><rdf:li>Those Icons</rdf:li></rdf:bag></dc:creator></rdf:description></rdf:rdf></metadata></svg></g></svg>