<svg id="SvgjsSvg1001" width="288" height="288" xmlns="http://www.w3.org/2000/svg" version="1.1" xmlns:xlink="http://www.w3.org/1999/xlink" xmlns:svgjs="http://svgjs.com/svgjs"><defs id="SvgjsDefs1002"></defs><g id="SvgjsG1008" transform="matrix(0.9167,0,0,0.9167,11.995200000000011,11.995200000000011)"><!--?xml version="1.0" encoding="UTF-8"?--><svg xmlns="http://www.w3.org/2000/svg" xmlns:xlink="http://www.w3.org/1999/xlink" version="1.1" id="Layer_1" x="0px" y="0px" viewBox="0 0 24 24" xml:space="preserve" width="288" height="288"><path fill="#475580" d="M19 0h-.5a1.5 1.5 0 1 1-3 0h-2a1.5 1.5 0 1 1-3 0h-2a1.5 1.5 0 1 1-3 0H5a2 2 0 0 0-2 2v20a2 2 0 0 0 2 2h.5a1.5 1.5 0 1 1 3 0h2a1.5 1.5 0 1 1 3 0h2a1.5 1.5 0 1 1 3 0h.5a2 2 0 0 0 2-2V2a2 2 0 0 0-2-2z" class="colorE6E6E5 svgShape"></path><path opacity="0.2" fill="#ffffff" d="M19 0h-.5a1.5 1.5 0 1 1-3 0h-2a1.5 1.5 0 1 1-3 0h-2a1.5 1.5 0 1 1-3 0H5a2 2 0 0 0-2 2v.25a2 2 0 0 1 2-2h.5a1.5 1.5 0 1 0 3 0h2a1.5 1.5 0 1 0 3 0h2a1.5 1.5 0 1 0 3 0h.5a2 2 0 0 1 2 2V2a2 2 0 0 0-2-2z" class="colorFFF svgShape"></path><path opacity="0.1" fill="#010101" d="M5 24h.5a1.5 1.5 0 1 1 3 0h2a1.5 1.5 0 1 1 3 0h2a1.5 1.5 0 1 1 3 0h.5a2 2 0 0 0 2-2v-.25a2 2 0 0 1-2 2h-.5a1.5 1.5 0 1 0-3 0h-2a1.5 1.5 0 1 0-3 0h-2a1.5 1.5 0 1 0-3 0H5a2 2 0 0 1-2-2V22a2 2 0 0 0 2 2z" class="color010101 svgShape"></path><path fill="#9fafce" d="M6 8h12v1H6z" class="color2D98D4 svgShape"></path><path fill="#9fafce" d="M6 5h12v1H6z" class="color2D98D4 svgShape"></path><path fill="#9fafce" d="M6 14h7v1H6z" class="color2D98D4 svgShape"></path><path fill="#9fafce" d="M6 11h12v1H6z" class="color2D98D4 svgShape"></path><path fill="#9fafce" d="M6 17h7v1H6z" class="color2D98D4 svgShape"></path><path fill="#9fafce" d="M17 13.5h-1v.592c-.58.207-1 .757-1 1.408 0 .827.673 1.5 1.5 1.5a.5.5 0 0 1 0 1H15v1h1v.5h1v-.592c.58-.207 1-.757 1-1.408 0-.827-.673-1.5-1.5-1.5a.5.5 0 0 1 0-1H18v-1h-1v-.5z" class="color2D98D4 svgShape"></path><linearGradient id="SVGID_1_" gradientUnits="userSpaceOnUse" x1="0.6069697" y1="6.6873379" x2="23.3930244" y2="17.3126488"><stop offset="0" stop-color="#FFF" stop-opacity="0.2"></stop><stop offset="1" stop-color="#FFF" stop-opacity="0"></stop></linearGradient><path fill="url(#SVGID_1_)" d="M19 0h-.5a1.5 1.5 0 1 1-3 0h-2a1.5 1.5 0 1 1-3 0h-2a1.5 1.5 0 1 1-3 0H5a2 2 0 0 0-2 2v20a2 2 0 0 0 2 2h.5a1.5 1.5 0 1 1 3 0h2a1.5 1.5 0 1 1 3 0h2a1.5 1.5 0 1 1 3 0h.5a2 2 0 0 0 2-2V2a2 2 0 0 0-2-2z"></path><metadata><rdf:rdf xmlns:rdf="http://www.w3.org/1999/02/22-rdf-syntax-ns#" xmlns:rdfs="http://www.w3.org/2000/01/rdf-schema#" xmlns:dc="http://purl.org/dc/elements/1.1/"><rdf:description about="https://iconscout.com/legal#licenses" dc:title="finance,invoice,payment,paper,receipt,bill" dc:description="finance,invoice,payment,paper,receipt,bill" dc:publisher="Iconscout" dc:date="2017-10-09" dc:format="image/svg+xml" dc:language="en"><dc:creator><rdf:bag><rdf:li>Those Icons</rdf:li></rdf:bag></dc:creator></rdf:description></rdf:rdf></metadata></svg></g></svg>