<svg id="SvgjsSvg1001" width="288" height="288" xmlns="http://www.w3.org/2000/svg" version="1.1" xmlns:xlink="http://www.w3.org/1999/xlink" xmlns:svgjs="http://svgjs.com/svgjs"><defs id="SvgjsDefs1002"></defs><g id="SvgjsG1008" transform="matrix(0.9167,0,0,0.9167,11.995200000000011,11.245677947998047)"><!--?xml version="1.0" encoding="UTF-8"?--><svg xmlns="http://www.w3.org/2000/svg" xmlns:xlink="http://www.w3.org/1999/xlink" version="1.1" id="Layer_1" x="0px" y="0px" viewBox="0 0 24 24" xml:space="preserve" width="288" height="288"><path fill="#2f4858" d="M19 15.848C18.977 10.53 17.755 7 12 7s-6.977 3.53-7 8.848c-.4.611-2 3.174-2 5.152 0 2.61 5.639 3 9 3s9-.39 9-3c0-1.978-1.6-4.541-2-5.152z" class="colorBF6A1E svgShape"></path><path fill="#2f4858" d="M19 15.848C18.977 10.53 17.755 7 12 7s-6.977 3.53-7 8.848c-.4.611-2 3.174-2 5.152 0 2.61 5.639 3 9 3s9-.39 9-3c0-1.978-1.6-4.541-2-5.152z" class="colorBF6A1E svgShape"></path><path opacity="0.2" fill="#ffffff" d="M12 7.25c3.24 0 5.077 1.095 6.083 2.98C17.145 8.193 15.338 7 12 7s-5.145 1.194-6.083 3.23C6.923 8.344 8.759 7.25 12 7.25z" class="colorFFF svgShape"></path><path opacity="0.1" d="M12 23.75c-3.316 0-8.839-.384-8.986-2.9-.002.049-.014.101-.014.15 0 2.61 5.639 3 9 3s9-.39 9-3c0-.049-.012-.101-.014-.15-.147 2.516-5.67 2.9-8.986 2.9z" fill="#000000" class="color000 svgShape"></path><path fill="#ffffff" d="M12 14h1.5v-1h-1v-.5h-1v.592c-.58.207-1 .757-1 1.408 0 .827.673 1.5 1.5 1.5a.5.5 0 0 1 0 1h-1.5v1h1v.5h1v-.592c.58-.207 1-.757 1-1.408 0-.827-.673-1.5-1.5-1.5a.5.5 0 0 1 0-1z" class="colorFFF svgShape"></path><linearGradient id="SVGID_1_" gradientUnits="userSpaceOnUse" x1="11.1465454" y1="14.6465454" x2="19.6016521" y2="23.1016521"><stop offset="0" stop-color="#000" stop-opacity="0.1"></stop><stop offset="1" stop-color="#000" stop-opacity="0"></stop></linearGradient><path fill="url(#SVGID_1_)" d="M12.5 16.5a.5.5 0 0 0-.5-.5c-.4 0-.763-.16-1.033-.417l1.317 1.317a.49.49 0 0 0 .216-.4zm8.45 3.95L13.5 13v1H12a.5.5 0 0 0 0 1c.827 0 1.5.673 1.5 1.5 0 .651-.42 1.2-1 1.408v.592h-1V18h-1l5.748 5.748C18.752 23.41 21 22.648 21 21c0-.178-.026-.364-.05-.55z"></path><linearGradient id="SVGID_2_" gradientUnits="userSpaceOnUse" x1="12.375" y1="12.625" x2="12.875" y2="13.125"><stop offset="0" stop-color="#000" stop-opacity="0.1"></stop><stop offset="1" stop-color="#000" stop-opacity="0"></stop></linearGradient><path fill="url(#SVGID_2_)" d="M12.5 12.5v.5h.5z"></path><path fill="#2f4858" d="M7 3.5c0 .663.504 1.468 1.039 2.321.355.568.737 1.188.884 1.65C9.77 7.168 10.777 7 12 7c1.21 0 2.21.165 3.05.461.135-.563.524-1.453.878-2.26C16.48 3.944 17 2.758 17 2a2 2 0 0 0-2-2c-.676 0-1.272.338-1.634.852A2.484 2.484 0 0 0 11.5 0c-1.245 0-2.27.913-2.46 2.104A1.49 1.49 0 0 0 8.5 2 1.5 1.5 0 0 0 7 3.5z" class="colorBF6A1E svgShape"></path><path opacity="0.2" fill="#ffffff" d="M8.446 2.28c.194 0 .378.04.549.106A2.532 2.532 0 0 1 11.492.25c.758 0 1.43.339 1.895.865A2.025 2.025 0 0 1 15.046.25c.896 0 1.648.585 1.918 1.39a1.995 1.995 0 1 0-3.597-.789A2.484 2.484 0 0 0 11.5 0c-1.245 0-2.27.913-2.46 2.104A1.49 1.49 0 0 0 8.5 2c-.752 0-1.37.555-1.478 1.277a1.52 1.52 0 0 1 1.424-.996z" class="colorFFF svgShape"></path><linearGradient id="SVGID_3_" gradientUnits="userSpaceOnUse" x1="4.3585858" y1="8.8311396" x2="22.8314648" y2="17.4451847"><stop offset="0" stop-color="#FFF" stop-opacity="0.2"></stop><stop offset="1" stop-color="#FFF" stop-opacity="0"></stop></linearGradient><path fill="url(#SVGID_3_)" d="M19 15.848c-.018-4.2-.794-7.275-3.95-8.387.135-.563.524-1.453.878-2.26C16.48 3.944 17 2.758 17 2a2 2 0 0 0-2-2c-.676 0-1.272.338-1.634.852A2.484 2.484 0 0 0 11.5 0c-1.245 0-2.27.913-2.46 2.104A1.49 1.49 0 0 0 8.5 2 1.5 1.5 0 0 0 7 3.5c0 .663.504 1.468 1.039 2.321.355.568.737 1.188.884 1.65C5.79 8.59 5.018 11.66 5 15.848c-.4.611-2 3.174-2 5.152 0 2.61 5.639 3 9 3s9-.39 9-3c0-1.978-1.6-4.541-2-5.152z"></path><metadata><rdf:rdf xmlns:rdf="http://www.w3.org/1999/02/22-rdf-syntax-ns#" xmlns:rdfs="http://www.w3.org/2000/01/rdf-schema#" xmlns:dc="http://purl.org/dc/elements/1.1/"><rdf:description about="https://iconscout.com/legal#licenses" dc:title="cash,dollar,money,bank,bag" dc:description="cash,dollar,money,bank,bag" dc:publisher="Iconscout" dc:date="2017-10-04" dc:format="image/svg+xml" dc:language="en"><dc:creator><rdf:bag><rdf:li>Those Icons</rdf:li></rdf:bag></dc:creator></rdf:description></rdf:rdf></metadata></svg></g></svg>