<svg xmlns="http://www.w3.org/2000/svg" data-name="Layer 1" viewBox="0 0 512 512"><path fill="#e1e1e3" d="M381.76,494.93994A57.05448,57.05448,0,0,1,298.57007,424.88a17.95132,17.95132,0,0,0-2.02-17.1L290.72,399.45,281.32007,386.02,235.24,320.21l-55.25-78.8999a44.993,44.993,0,0,1,11.05-62.67l71.1499,101.61L308.27,346.05005l19.32007,27.59,5.88989,8.41a18.00162,18.00162,0,0,0,15.5,7.6499,57.05558,57.05558,0,0,1,32.78,105.24Z"/><path fill="#e4222e" d="M381.76,494.93994A57.05448,57.05448,0,0,1,298.57007,424.88a17.95132,17.95132,0,0,0-2.02-17.1L290.72,399.45,327.58008,373.64h.01l5.88989,8.41a18.00162,18.00162,0,0,0,15.5,7.6499,57.05558,57.05558,0,0,1,32.78,105.24Z"/><path fill="#c0232c" d="M398.02,413.99a57.00285,57.00285,0,0,0-49.04-24.29,18.00162,18.00162,0,0,1-15.5-7.6499l-5.88989-8.41h-.01l-10.05786,7.04261.95776,1.36743a18.00162,18.00162,0,0,0,15.5,7.6499,57.05558,57.05558,0,0,1,32.78,105.24,56.34815,56.34815,0,0,1-22.88574,8.27686A56.98359,56.98359,0,0,0,398.02,413.99Z"/><rect width="222.717" height="409.076" x="144.642" y="-85.68" fill="#17a454" rx="30" transform="rotate(-90 256 118.858)"/><path fill="#138b4c" d="M430.53809,7.5h-30a30.00008,30.00008,0,0,1,30,30V200.21667a30.00015,30.00015,0,0,1-30,30h30a30.00015,30.00015,0,0,0,30-30V37.5A30.00008,30.00008,0,0,0,430.53809,7.5Z"/><path fill="#138b4c" d="M460.54,37.5V200.22a29.9982,29.9982,0,0,1-30,30h-30a29.9982,29.9982,0,0,0,30-30V37.5a29.9982,29.9982,0,0,0-30-30h30A29.9982,29.9982,0,0,1,460.54,37.5Z"/><path fill="#24b378" d="M460.538,67.5V170.21671a60,60,0,0,0-60,60H111.462a60,60,0,0,0-60-60V67.5a60,60,0,0,0,60-60H400.538A60,60,0,0,0,460.538,67.5Z"/><path fill="#19ac66" d="M460.54,67.5V170.22a59.6858,59.6858,0,0,0-30,8.03V59.47A59.6858,59.6858,0,0,0,460.54,67.5Z"/><circle cx="256" cy="118.858" r="75.738" fill="#fed947"/><path fill="#fed030" d="M256,43.12036a76.06493,76.06493,0,0,0-15,1.4917,75.74848,75.74848,0,0,1,0,148.49268A75.74188,75.74188,0,1,0,256,43.12036Z"/><path fill="#f8be32" d="M256,202.09668a83.23828,83.23828,0,1,1,83.23828-83.23828A83.33292,83.33292,0,0,1,256,202.09668Zm0-151.47656a68.23828,68.23828,0,1,0,68.23828,68.23828A68.31526,68.31526,0,0,0,256,50.62012Z"/><path fill="#fff" d="M276.97461 92.03516H235.02539a7.5 7.5 0 0 1 0-15h41.94922a7.5 7.5 0 0 1 0 15zM276.97461 114.917H235.02539a7.5 7.5 0 1 1 0-15h41.94922a7.5 7.5 0 0 1 0 15z"/><path fill="#fff" d="M265.53516,169.74121a7.48093,7.48093,0,0,1-5.42481-2.31933l-30.50879-31.94239a7.50057,7.50057,0,0,1,5.42383-12.68066h7.627a15.38184,15.38184,0,1,0,0-30.76367h-7.627a7.5,7.5,0,0,1,0-15h7.627a30.3839,30.3839,0,0,1,8.69629,59.49609l19.60938,20.5293a7.5,7.5,0,0,1-5.42285,12.68066Z"/><polygon fill="#c8c5cc" points="308.27 346.05 281.32 386.02 235.24 320.21 262.19 280.25 308.27 346.05"/><path fill="#8b8893" d="M362.33008,239.08,254.37988,399.13v.01l-5.73974,8.50989A17.994,17.994,0,0,0,247.05005,424.86a57.05521,57.05521,0,1,1-50.90015-34.45008,17.95088,17.95088,0,0,0,15.24024-8.01l5.67993-8.42993L350.18994,176.62A44.98766,44.98766,0,0,1,362.33008,239.08Z"/><path fill="#e1e1e3" d="M362.33008,239.08,254.37988,399.13v.01l-5.73974,8.50989A17.994,17.994,0,0,0,247.05005,424.86a57.05521,57.05521,0,1,1-50.90015-34.45008,17.95088,17.95088,0,0,0,15.24024-8.01l5.67993-8.42993L350.18994,176.62A44.98766,44.98766,0,0,1,362.33008,239.08Z"/><path fill="#dadadc" d="M350.18994,176.62l-5.67114,8.40734A44.99735,44.99735,0,0,1,347.33008,239.08L239.37988,399.13v.01l-5.73974,8.50989A17.994,17.994,0,0,0,232.05005,424.86a57.04769,57.04769,0,0,1-44.9021,79.13464A57.05108,57.05108,0,0,0,247.05005,424.86a17.994,17.994,0,0,1,1.59009-17.21009l5.73974-8.50989v-.01l107.9502-160.05A44.98766,44.98766,0,0,0,350.18994,176.62Z"/><path fill="#e4222e" d="M248.64014,407.6499A17.994,17.994,0,0,0,247.05005,424.86a57.05521,57.05521,0,1,1-50.90015-34.45008,17.95088,17.95088,0,0,0,15.24024-8.01l5.67993-8.42993,37.30981,25.16v.01Z"/><path fill="#c0232c" d="M254.37988,399.14v-.01l-37.30981-25.16-4.68628,6.95508L230.871,393.39883a10.26637,10.26637,0,0,1,2.76916,14.25106h0A17.994,17.994,0,0,0,232.05005,424.86a57.04769,57.04769,0,0,1-44.9021,79.13464A57.05108,57.05108,0,0,0,247.05005,424.86a17.994,17.994,0,0,1,1.59009-17.21009Z"/><circle cx="194.721" cy="447.421" r="22.5" fill="#fff"/><path fill="#e1e1e3" d="M207.30322,428.76758a22.4436,22.4436,0,0,0-20.07885-2.535,22.46045,22.46045,0,0,1-.00611,42.37684,22.487,22.487,0,0,0,20.085-39.8418Z"/><circle cx="271.755" cy="333.135" r="7.5" fill="#8b8893"/><circle cx="351.34" cy="446.663" r="22.5" fill="#fff"/><path fill="#e1e1e3" d="M369.771,433.75757a22.49106,22.49106,0,0,0-25.93189-8.288,22.456,22.456,0,0,1,.0022,42.38685A22.48452,22.48452,0,0,0,369.771,433.75757Z"/></svg>