<?xml version="1.0" encoding="UTF-8"?><svg xmlns="http://www.w3.org/2000/svg" xmlns:xlink="http://www.w3.org/1999/xlink" version="1.1" id="Layer_1" x="0px" y="0px" viewBox="0 0 24 24" xml:space="preserve"><path fill="#82C341" d="M19 10H4a1 1 0 0 1-1-1V2a1 1 0 0 1 1-1h15a1 1 0 0 1 1 1v7a1 1 0 0 1-1 1z"/><path fill="#74A333" d="M19 1h-3a4 4 0 0 0 4 4V2a1 1 0 0 0-1-1z"/><path fill="#74A333" d="M3 2v3a4 4 0 0 0 4-4H4a1 1 0 0 0-1 1z"/><ellipse fill="#BAD982" cx="11.5" cy="7.5" rx="2.5" ry="3.5"/><path fill="#BF6A1E" d="M20 7H3c-1.103 0-2 .897-2 2v12c0 1.103.897 2 2 2h17c1.103 0 2-.897 2-2V9c0-1.103-.897-2-2-2z"/><path opacity="0.1" d="M20 22.75H3c-1.103 0-2-.897-2-2V21c0 1.103.897 2 2 2h17c1.103 0 2-.897 2-2v-.25c0 1.103-.897 2-2 2z"/><path opacity="0.2" fill="#FFF" d="M20 7H3c-1.103 0-2 .897-2 2v.25c0-1.103.897-2 2-2h17c1.103 0 2 .897 2 2V9c0-1.103-.897-2-2-2z"/><path fill="#D58347" d="M22 12h-3.882c-1.45 0-2.783.978-3.06 2.402A3.005 3.005 0 0 0 18 18h4a1 1 0 0 0 1-1v-4a1 1 0 0 0-1-1z"/><path opacity="0.1" d="M22.047 17.75h-4.063a3.074 3.074 0 0 1-2.923-2.146C15.349 16.96 16.559 18 18 18h4a.98.98 0 0 0 .98-.817c-.16.345-.522.567-.933.567z"/><circle fill="#F9C20A" cx="18" cy="15" r="1"/><linearGradient id="SVGID_1_" gradientUnits="userSpaceOnUse" x1="17.0937805" y1="14.5774221" x2="18.9062195" y2="15.4225779"><stop offset="0" stop-color="#FFF" stop-opacity="0.2"/><stop offset="1" stop-color="#FFF" stop-opacity="0"/></linearGradient><circle fill="url(#SVGID_1_)" cx="18" cy="15" r="1"/><path opacity="0.2" fill="#FFF" d="M22.047 12.25h-4.063a3.059 3.059 0 0 0-2.922 2.13C15.322 12.977 16.706 12 18 12h4c.495 0 .9.345.98.817-.16-.345-.522-.567-.933-.567z"/><linearGradient id="SVGID_2_" gradientUnits="userSpaceOnUse" x1="17.5875149" y1="16.2036037" x2="21.776556" y2="20.3926449"><stop offset="0" stop-color="#3E2723" stop-opacity="0.2"/><stop offset="1" stop-color="#3E2723" stop-opacity="0.02"/></linearGradient><path fill="url(#SVGID_2_)" d="M16 17.232l5.286 5.287C21.72 22.15 22 21.61 22 21v-3h-4c-.763 0-1.47-.297-2-.768z"/><path opacity="0.2" fill="#FFF" d="M19 1H4a1 1 0 0 0-1 1v.25a1 1 0 0 1 1-1h15a1 1 0 0 1 1 1V2a1 1 0 0 0-1-1z"/><linearGradient id="SVGID_3_" gradientUnits="userSpaceOnUse" x1="0.4937511" y1="7.1523914" x2="23.6325912" y2="17.9422092"><stop offset="0" stop-color="#FFF" stop-opacity="0.2"/><stop offset="1" stop-color="#FFF" stop-opacity="0"/></linearGradient><path fill="url(#SVGID_3_)" d="M22 12V9c0-1.103-.897-2-2-2V2a1 1 0 0 0-1-1H4a1 1 0 0 0-1 1v5c-1.103 0-2 .897-2 2v12c0 1.103.897 2 2 2h17c1.103 0 2-.897 2-2v-3a1 1 0 0 0 1-1v-4a1 1 0 0 0-1-1z"/><metadata><rdf:RDF xmlns:rdf="http://www.w3.org/1999/02/22-rdf-syntax-ns#" xmlns:rdfs="http://www.w3.org/2000/01/rdf-schema#" xmlns:dc="http://purl.org/dc/elements/1.1/"><rdf:Description about="https://iconscout.com/legal#licenses" dc:title="purse,money,wallet,cash,pay" dc:description="purse,money,wallet,cash,pay" dc:publisher="Iconscout" dc:date="2017-10-04" dc:format="image/svg+xml" dc:language="en"><dc:creator><rdf:Bag><rdf:li>Those Icons</rdf:li></rdf:Bag></dc:creator></rdf:Description></rdf:RDF></metadata></svg>